<?xml version="1.0" standalone="no"?>
<!DOCTYPE svg PUBLIC "-//W3C//DTD SVG 20010904//EN"
 "http://www.w3.org/TR/2001/REC-SVG-20010904/DTD/svg10.dtd">
<svg version="1.0" xmlns="http://www.w3.org/2000/svg"
 width="735.000000pt" height="735.000000pt" viewBox="0 0 735.000000 735.000000"
 preserveAspectRatio="xMidYMid meet">
<metadata>
Created by potrace 1.14, written by Peter Selinger 2001-2017
</metadata>
<g transform="translate(0.000000,735.000000) scale(0.100000,-0.100000)"
fill="#000000" stroke="none">
<path d="M333 7343 c12 -3 17 -14 17 -38 0 -40 -11 -50 -74 -66 -32 -8 -50
-18 -54 -31 -5 -21 -58 -26 -64 -6 -3 7 -7 6 -11 -5 -3 -9 -2 -17 3 -17 17 0
11 -18 -15 -44 -14 -14 -25 -34 -25 -45 0 -20 -9 -25 -72 -36 l-38 -6 0 -179
c0 -99 4 -180 8 -180 11 0 52 39 52 49 0 8 17 28 99 116 10 11 40 36 67 55 26
19 52 40 58 45 23 22 69 35 122 35 55 0 180 32 219 55 11 7 38 18 60 25 76 24
180 98 162 116 -11 11 -67 15 -67 5 0 -6 5 -11 10 -11 6 0 10 -4 10 -10 0 -5
-10 -9 -22 -8 -39 2 -138 -23 -138 -35 0 -16 -36 -40 -75 -50 -73 -20 -75 -20
-75 -3 0 9 -4 16 -8 16 -5 0 -17 17 -28 37 -24 47 -38 63 -57 63 -32 0 -29 49
5 105 29 48 24 55 -34 54 -29 -1 -45 -3 -35 -6z m-143 -173 c0 -5 -5 -10 -11
-10 -5 0 -7 5 -4 10 3 6 8 10 11 10 2 0 4 -4 4 -10z"/>
<path d="M1149 7343 c-1 -5 -3 -21 -5 -37 -4 -37 -10 -42 -37 -29 -39 20 -67
22 -82 6 -23 -23 -18 -38 23 -65 43 -29 64 -25 121 23 20 16 42 34 49 40 6 5
12 23 12 39 0 28 -2 30 -40 30 -22 0 -41 -3 -41 -7z"/>
<path d="M1258 7324 c5 -25 7 -26 50 -20 44 6 72 20 72 37 0 5 -29 9 -64 9
-63 0 -63 0 -58 -26z"/>
<path d="M2106 7332 c-5 -14 -1 -30 11 -46 18 -25 41 -37 27 -14 -5 8 -2 9 9
5 25 -10 20 9 -12 45 -28 31 -29 31 -35 10z"/>
<path d="M2279 7336 c25 -14 51 -11 51 5 0 5 -17 9 -37 9 -37 -1 -38 -1 -14
-14z"/>
<path d="M2854 7315 c-1 -41 -20 -64 -94 -115 -30 -21 -95 -69 -143 -108 -49
-38 -106 -74 -126 -81 -21 -6 -44 -18 -51 -26 -7 -8 -19 -15 -26 -15 -8 0 -14
-4 -14 -10 0 -5 -18 -10 -39 -10 -22 0 -41 -4 -43 -9 -1 -5 -46 -29 -98 -54
-52 -24 -114 -56 -137 -70 -39 -25 -73 -35 -73 -21 0 3 4 13 9 23 9 16 -1 199
-14 262 -9 42 -43 51 -172 43 -164 -10 -158 -2 -158 -205 l0 -164 -44 -24
c-42 -23 -46 -23 -111 -11 -45 9 -77 21 -94 37 -42 38 -34 47 37 40 l62 -7
-28 25 c-36 32 -115 35 -140 7 -10 -10 -17 -21 -17 -25 0 -3 -14 -36 -32 -72
-27 -58 -30 -70 -20 -101 8 -27 7 -34 -3 -34 -8 0 -17 5 -20 10 -3 6 -16 10
-28 10 -19 -1 -16 -7 24 -43 25 -23 87 -67 139 -97 51 -30 95 -61 98 -69 6
-17 -33 -48 -71 -57 -32 -7 -29 -16 6 -20 12 -1 23 -3 25 -3 5 -1 -50 -45 -78
-62 -31 -19 -60 -13 -60 12 0 17 -7 19 -59 19 -74 0 -112 -12 -62 -20 20 -3
40 -14 48 -27 15 -22 15 -23 -38 -20 -52 2 -53 2 -60 -31 -8 -41 -17 -51 -29
-32 -7 12 -31 15 -103 15 -92 0 -93 0 -75 19 10 11 18 23 18 27 0 11 -29 19
-72 19 -40 0 -40 -1 -24 -19 21 -23 18 -42 -9 -56 -22 -12 -55 1 -55 21 0 10
-11 15 -115 49 -75 25 -128 47 -145 61 -8 7 -46 25 -85 40 -38 15 -78 34 -88
43 -12 10 -37 15 -74 15 -30 -1 -50 2 -44 5 12 8 -22 51 -39 51 -5 0 -39 18
-75 40 -36 22 -69 40 -73 40 -4 0 -20 11 -35 25 -18 18 -27 21 -27 11 0 -7 7
-16 15 -20 8 -3 15 -12 15 -20 0 -8 7 -19 16 -24 10 -5 14 -15 10 -21 -6 -8
-12 -9 -20 -2 -25 21 -36 -11 -36 -99 l0 -85 78 -35 c42 -19 117 -55 167 -80
l89 -45 12 -85 c7 -47 23 -112 36 -145 22 -58 23 -70 20 -294 -2 -222 -1 -235
17 -248 30 -20 45 -111 45 -275 1 -123 4 -150 17 -164 16 -15 18 -15 37 4 20
20 24 74 37 427 2 44 8 121 14 171 5 51 9 183 8 294 -2 201 -2 202 22 221 26
21 77 25 116 7 30 -13 30 -17 8 -63 -16 -34 -16 -36 5 -58 32 -34 41 -168 17
-262 -10 -43 -14 -81 -10 -104 10 -53 6 -329 -7 -424 -6 -45 -12 -199 -13
-342 -1 -143 -5 -325 -9 -405 -4 -80 -9 -318 -11 -530 -3 -212 -9 -477 -15
-590 l-11 -205 -127 -253 c-93 -186 -138 -265 -169 -298 -24 -24 -43 -48 -43
-54 0 -6 -9 -21 -21 -33 -28 -30 -47 -78 -55 -140 -5 -36 -14 -59 -30 -74 -13
-12 -24 -29 -24 -39 0 -9 -15 -44 -34 -77 -18 -34 -37 -73 -41 -87 -16 -51
-50 -90 -87 -102 l-38 -11 0 -192 0 -192 25 -11 c14 -7 42 -12 62 -12 20 0 62
-9 94 -20 64 -23 90 -18 129 24 36 39 106 86 180 122 40 19 83 50 112 82 32
34 50 47 55 39 5 -7 9 -122 10 -257 2 -332 10 -627 18 -640 3 -5 15 -10 25
-10 14 0 20 -10 25 -41 8 -44 -5 -63 -36 -54 -28 9 -38 -76 -38 -332 0 -219 6
-281 23 -238 3 8 12 15 19 15 16 0 27 -41 27 -99 0 -44 10 -81 20 -81 5 0 10
118 12 263 3 192 8 270 18 292 11 26 14 27 17 10 17 -87 39 -158 64 -205 22
-42 29 -69 29 -112 0 -31 5 -60 11 -64 6 -3 19 -25 29 -48 27 -62 91 -136 118
-136 29 0 28 15 -3 42 -14 12 -25 25 -25 30 0 5 -8 18 -18 28 -20 22 -52 114
-52 151 0 20 -45 124 -60 139 -13 13 -33 81 -40 135 -9 78 -18 105 -35 105
-18 0 -38 92 -26 123 11 28 -2 106 -19 117 -7 4 -14 27 -17 51 -7 69 14 431
28 464 7 17 13 46 14 65 1 19 7 73 13 120 7 47 16 126 21 175 12 116 27 182
48 214 10 14 16 30 15 35 -6 19 32 103 75 162 23 34 43 67 43 73 0 6 4 19 9
29 28 54 122 254 139 293 11 26 38 75 61 109 23 34 41 64 41 66 0 3 23 39 50
80 28 41 50 78 50 83 0 5 14 20 31 33 17 13 57 47 88 77 31 29 74 62 96 73 42
19 77 39 85 48 9 9 60 40 117 72 42 23 63 29 89 25 19 -3 34 -4 34 -1 0 2 -19
16 -43 31 -23 14 -67 51 -98 80 -53 50 -57 52 -57 29 0 -14 4 -24 8 -21 4 2
13 -13 20 -34 11 -36 11 -42 -9 -69 -11 -17 -21 -33 -21 -36 0 -24 -102 -89
-132 -84 -18 2 -24 10 -25 38 -6 78 -16 144 -20 133 -3 -7 -13 -13 -23 -13
-28 0 -33 78 -7 108 11 12 26 22 33 22 7 0 14 25 18 68 9 93 16 122 28 122 5
0 12 -9 15 -20 3 -11 9 -20 14 -20 14 0 11 26 -5 39 -47 39 -56 531 -12 658
16 47 54 76 88 68 36 -9 116 -78 166 -144 45 -60 62 -104 72 -191 5 -39 7 -15
9 88 0 78 5 142 10 142 5 0 15 -10 24 -22 26 -40 32 -10 14 75 -27 128 -40
398 -27 552 21 251 97 640 130 660 4 2 11 -28 14 -68 17 -176 57 -382 85 -435
20 -36 27 -31 23 18 -3 44 21 198 37 239 11 25 22 69 24 97 9 82 58 215 83
225 32 11 38 28 20 48 -14 16 -14 19 0 40 11 15 25 22 43 20 14 -1 49 8 76 20
114 51 207 82 220 71 8 -6 13 -41 14 -90 2 -106 -13 -138 -77 -164 -26 -11
-49 -22 -52 -26 -14 -16 -92 -42 -133 -43 -35 -2 -47 -6 -47 -18 0 -13 9 -14
60 -8 33 4 70 13 83 21 12 8 49 25 82 38 33 13 74 34 92 47 17 12 38 23 47 23
8 0 17 4 21 9 3 6 25 20 49 32 50 25 58 46 55 148 -2 68 -4 72 -41 88 -32 14
-33 23 -13 117 19 91 55 200 115 352 61 155 171 375 206 415 8 8 14 20 14 26
0 18 101 146 156 199 91 86 127 94 139 32 26 -133 80 -299 161 -495 19 -45 34
-89 34 -97 0 -9 4 -16 8 -16 4 0 23 -30 42 -67 66 -126 191 -295 327 -442 24
-25 43 -49 43 -53 0 -3 37 -39 82 -79 56 -49 84 -68 86 -58 1 8 -20 55 -47
105 -108 194 -209 469 -236 644 -4 25 -15 79 -25 120 -20 83 -45 268 -38 276
3 2 17 -20 32 -51 14 -31 59 -104 99 -162 39 -58 78 -115 86 -127 36 -52 157
-211 164 -214 4 -2 7 -9 7 -15 0 -7 11 -22 23 -34 13 -12 36 -41 52 -65 15
-24 37 -56 49 -73 121 -175 250 -380 299 -475 10 -19 33 -59 52 -88 18 -30 31
-60 28 -68 -3 -8 2 -25 11 -38 8 -13 20 -45 27 -70 13 -52 35 -64 25 -13 -4
17 -9 75 -12 127 -14 292 -50 668 -80 827 -29 161 -29 163 -4 156 11 -3 20 -9
20 -13 0 -4 20 -30 45 -56 46 -49 111 -151 151 -234 11 -25 33 -70 47 -100 30
-65 54 -126 73 -195 40 -140 90 -425 100 -567 4 -60 10 -108 14 -108 10 0 118
326 134 405 4 17 10 65 15 109 11 97 23 112 44 54 65 -181 121 -612 122 -933
0 -164 -1 -174 -34 -285 -18 -63 -38 -123 -43 -133 -5 -10 -7 -21 -4 -24 3 -3
24 24 47 61 22 36 45 63 50 60 8 -5 7 -98 -6 -301 -5 -76 -1 -89 15 -49 15 41
125 189 173 233 74 68 136 69 169 3 38 -75 14 -429 -41 -622 -25 -86 -91 -241
-130 -304 -17 -27 -38 -62 -47 -79 -9 -16 -26 -41 -38 -55 -20 -22 -19 -22 12
3 25 20 40 25 59 21 54 -14 160 -75 206 -118 49 -46 87 -76 97 -76 3 0 5 134
6 298 0 163 1 315 2 337 1 22 1 57 0 77 -1 21 2 41 5 45 4 3 31 1 59 -5 29 -6
81 -14 115 -18 l62 -6 11 43 c15 54 31 86 60 119 12 14 27 38 32 53 6 16 14
25 19 20 5 -5 11 -268 13 -586 3 -317 8 -582 11 -588 5 -7 14 -4 27 8 11 10
30 17 43 15 20 -3 24 2 30 40 4 24 4 338 0 698 -6 567 -7 782 -4 1160 1 41 -1
111 -2 155 l-4 80 67 33 c70 35 168 116 155 128 -4 4 -22 2 -40 -4 -51 -18
-152 -15 -173 5 -9 9 -25 18 -36 18 -11 1 -24 8 -29 16 -12 18 -2 361 12 406
8 24 6 48 -5 91 -15 60 -12 167 5 178 5 3 14 -16 20 -41 8 -33 16 -45 30 -45
11 0 19 7 19 16 0 28 40 104 55 104 8 0 15 9 15 20 0 11 -7 20 -15 20 -8 0
-15 5 -15 11 0 5 5 7 11 4 6 -4 16 1 24 11 12 17 15 17 51 1 22 -9 59 -19 84
-21 25 -3 63 -14 85 -25 21 -12 55 -21 75 -21 20 0 40 -4 46 -10 19 -19 103
-39 111 -27 3 7 3 9 -1 5 -4 -3 -16 1 -26 9 -22 19 -15 50 13 59 20 6 20 7 -5
20 -14 7 -32 24 -41 37 l-16 24 47 6 c26 3 68 2 94 -2 68 -11 238 9 238 27 0
12 -29 13 -177 10 -98 -3 -186 -8 -195 -12 -10 -5 -18 -16 -18 -25 0 -10 -11
-28 -24 -40 -30 -29 -75 -22 -111 17 -23 25 -25 25 -44 8 -15 -14 -23 -15 -40
-6 -25 13 -25 14 -5 45 16 24 16 25 -10 25 -15 0 -29 -7 -32 -15 -8 -19 -31
-19 -66 -1 -15 8 -42 17 -60 21 -18 4 -41 13 -51 20 -16 11 -16 13 -2 18 8 4
21 5 28 3 36 -12 77 -14 77 -6 0 6 -5 10 -11 10 -6 0 -39 13 -73 29 -33 16
-85 36 -114 45 -28 8 -62 22 -74 30 -12 9 -30 16 -39 16 -10 0 -19 6 -22 13
-2 6 -7 9 -11 6 -4 -4 5 -20 19 -37 14 -16 25 -37 25 -46 0 -9 5 -16 12 -16 6
0 3 -6 -7 -14 -30 -22 -10 -70 30 -74 50 -6 55 -17 55 -116 0 -82 -10 -129
-24 -115 -3 2 -23 43 -44 89 -25 52 -57 102 -84 130 -25 25 -53 58 -64 75
l-19 30 32 -23 c26 -19 36 -21 53 -12 11 6 20 19 20 29 0 19 -29 51 -46 51 -6
0 -27 17 -47 38 -26 26 -36 44 -31 55 3 10 1 17 -5 17 -6 0 -11 7 -11 15 0 8
-6 16 -12 16 -47 5 -58 7 -72 12 -9 4 -16 11 -16 16 0 14 32 23 44 11 18 -18
52 -11 76 15 26 27 161 115 178 115 5 0 31 20 58 44 l48 45 -19 23 c-89 103
-162 179 -177 184 -11 3 -34 -4 -54 -15 -64 -38 -66 -36 -63 104 l2 125 -48
31 c-69 44 -168 51 -243 19 -63 -27 -57 -41 13 -30 77 13 159 12 180 -3 26
-19 4 -31 -54 -28 -47 1 -101 -15 -101 -30 0 -5 -9 -9 -19 -9 -11 0 -22 -6
-25 -12 -3 -7 -3 -3 0 10 5 20 3 23 -17 20 -13 -2 -29 -14 -36 -28 -12 -25
-48 -44 -63 -35 -14 9 -23 -81 -17 -158 l6 -70 -40 6 c-79 10 -193 91 -356
252 -151 147 -194 182 -213 170 -15 -9 -12 -51 5 -65 9 -7 13 -15 11 -17 -3
-3 4 -14 15 -26 28 -30 25 -59 -5 -53 -13 2 -33 9 -44 15 -42 23 -152 1 -152
-29 0 -25 -138 -67 -167 -51 -10 6 -30 12 -45 16 -15 3 -60 37 -100 75 -40 38
-79 70 -86 70 -15 0 -92 42 -92 51 0 3 18 13 41 23 26 12 38 23 35 32 -3 7 6
22 19 32 17 14 21 22 13 30 -8 8 0 13 28 18 22 4 41 10 44 13 3 4 16 12 30 18
19 9 -149 12 -721 12 l-747 1 -7 -56 c-8 -64 -22 -62 -52 12 l-18 44 -125 0
-125 0 -1 -35z m-996 -273 c3 -9 -2 -13 -14 -10 -9 1 -19 9 -22 16 -3 9 2 13
14 10 9 -1 19 -9 22 -16z m923 2 c6 -8 20 -14 31 -14 19 0 58 -17 68 -29 3 -3
28 -17 55 -31 58 -29 85 -50 85 -66 0 -6 9 -14 21 -17 38 -10 9 -29 -40 -26
-28 2 -58 -3 -76 -12 -16 -9 -51 -22 -77 -29 -27 -7 -48 -16 -48 -19 0 -16
-168 -53 -176 -39 -3 5 -13 7 -21 4 -17 -7 -54 28 -77 72 -26 51 -13 54 218
54 112 0 209 -3 215 -6 6 -4 11 -3 11 1 0 20 -157 47 -290 49 -197 3 -182 1
-168 23 7 11 23 25 37 31 15 6 37 19 51 28 56 38 159 52 181 26z m3099 -58 c0
-17 45 -27 59 -13 8 8 11 6 11 -6 0 -9 -7 -17 -15 -17 -8 0 -15 -4 -15 -10 0
-5 -22 -10 -50 -10 -54 0 -61 7 -30 30 11 8 20 20 20 27 0 7 5 13 10 13 6 0
10 -6 10 -14z m-4262 -357 c-16 -10 -33 5 -23 21 5 8 11 8 21 -1 12 -10 12
-14 2 -20z m1222 -94 c-40 -109 -107 -442 -125 -617 l-7 -68 -151 -74 c-84
-41 -156 -72 -161 -69 -11 7 1 79 19 106 7 12 23 45 34 74 38 98 164 357 213
438 9 17 28 50 42 75 33 63 155 225 162 217 2 -2 -10 -39 -26 -82z m-2649
-120 c0 -5 -6 -14 -15 -20 -11 -7 -22 -2 -42 18 -15 15 -33 27 -40 27 -8 0
-14 4 -14 9 0 12 111 -22 111 -34z m1389 -54 c0 -6 -5 -13 -10 -16 -15 -9 -43
3 -35 15 8 13 45 13 45 1z m-1037 -95 c24 -18 21 -26 -8 -26 -14 0 -25 2 -25
4 0 2 -3 11 -6 20 -8 20 14 21 39 2z m5923 -81 c18 -13 17 -14 -18 -15 -43 0
-70 9 -62 21 8 14 58 11 80 -6z m-5971 -89 c41 -10 49 -16 45 -32 -2 -10 -3
-116 -2 -234 2 -214 -5 -269 -29 -227 -5 9 -17 17 -24 17 -10 0 -15 10 -15 28
0 15 -5 62 -12 104 -10 68 -9 80 6 102 21 33 12 80 -14 73 -21 -5 -30 17 -30
73 0 19 -4 49 -9 67 -14 48 -2 52 84 29z m5983 -82 c-5 -28 -28 -29 -28 -1 0
13 3 27 7 30 10 11 25 -9 21 -29z m-5498 -14 c7 -14 10 -82 8 -195 -2 -95 0
-176 4 -180 4 -4 18 -5 32 -1 l24 6 2 177 c0 138 4 181 15 192 50 50 94 -88
65 -204 -15 -60 -60 -202 -86 -270 -26 -71 -51 -211 -40 -222 5 -5 11 -2 14 6
9 25 88 136 98 136 18 0 24 -103 19 -295 -6 -184 -7 -196 -28 -216 -39 -39
-147 -87 -202 -92 l-52 -4 3 103 c2 57 6 214 9 349 3 135 9 348 13 474 8 207
10 230 27 242 27 20 63 17 75 -6z m5135 -104 c7 -7 16 -31 20 -52 10 -58 56
-208 67 -219 7 -7 9 -2 5 14 -3 13 -1 48 4 79 8 40 7 62 -2 83 -6 17 -9 33 -5
36 4 4 9 -2 12 -14 4 -12 13 -20 22 -18 21 3 62 -18 82 -42 93 -112 86 -81 80
-330 -3 -117 -6 -153 -16 -153 -14 0 -64 49 -64 62 0 4 -40 53 -89 108 -80 90
-94 112 -132 207 -58 146 -66 253 -18 253 11 0 27 -6 34 -14z m-3420 -95 c0
-14 -121 -63 -145 -58 -8 1 17 19 55 39 71 38 90 42 90 19z m159 -48 c3 -16 6
-55 8 -88 3 -54 1 -60 -15 -57 -11 2 -27 -4 -37 -13 -24 -22 -54 -16 -58 12
-3 19 29 141 44 164 3 5 16 9 29 9 18 0 25 -7 29 -27z m-1371 -45 c2 -7 -6
-35 -19 -63 -28 -63 -76 -221 -104 -345 -12 -52 -25 -99 -29 -105 -4 -5 -14
-26 -21 -45 -14 -37 -38 -70 -51 -70 -12 0 -3 503 10 528 6 12 25 28 40 37 16
8 35 21 43 28 39 40 121 61 131 35z m-1036 -80 c-3 -7 -5 -2 -5 12 0 14 2 19
5 13 2 -7 2 -19 0 -25z m368 -588 c-8 -99 -15 -140 -24 -140 -10 0 -7 172 3
189 5 8 4 16 -4 21 -9 6 -10 19 -5 46 l8 39 14 -35 c12 -27 14 -55 8 -120z
m5657 -50 c5 -25 6 -133 2 -240 -7 -244 -6 -748 2 -761 7 -12 -17 -119 -26
-119 -20 0 -28 37 -34 155 -14 283 -22 326 -40 223 -4 -21 -11 -40 -16 -43
-13 -8 -100 56 -100 74 0 9 7 54 16 101 9 47 16 137 16 200 1 99 -3 126 -26
194 -26 78 -55 135 -104 209 -14 20 -23 39 -21 40 2 2 58 1 125 -2 86 -4 127
-2 145 6 39 21 53 12 61 -37z m-5666 -216 c4 -14 2 -30 -4 -36 -15 -15 -45 -1
-38 18 3 9 6 22 6 30 0 25 29 15 36 -12z m138 -99 c65 -33 101 -45 133 -45 38
0 45 -4 53 -26 18 -46 12 -132 -10 -154 -11 -11 -24 -20 -30 -20 -5 0 -15 9
-22 20 -7 11 -21 20 -30 20 -23 0 -22 -2 4 -47 24 -42 29 -116 12 -154 -26
-55 -34 -82 -34 -112 0 -42 -53 -246 -84 -326 -22 -56 -37 -118 -77 -329 -18
-89 -33 -59 -43 84 -7 90 -5 221 5 434 7 168 15 391 15 495 2 218 2 205 12
205 4 0 47 -20 96 -45z m494 12 c2 -10 -7 -32 -20 -50 -48 -65 -109 -206 -123
-284 -19 -103 -19 -251 0 -340 26 -122 59 -218 78 -221 15 -3 17 8 17 100 0
57 4 109 9 117 18 28 26 -76 23 -309 -1 -137 2 -257 9 -287 7 -37 7 -63 -1
-94 -6 -23 -15 -113 -19 -201 -6 -147 -8 -161 -28 -176 -12 -10 -41 -46 -65
-82 -84 -125 -112 -160 -120 -152 -9 9 -12 606 -3 644 3 13 7 115 10 228 11
510 26 889 35 935 6 28 11 68 13 90 2 39 3 40 77 72 82 35 103 37 108 10z
m4609 -92 c69 -41 143 -176 143 -262 0 -38 2 -37 -41 -19 -37 15 -62 40 -73
69 -3 11 -15 21 -26 24 -21 6 -34 42 -45 123 -4 25 -8 55 -11 68 -6 28 0 28
53 -3z m75 -355 c6 0 5 -6 -2 -15 -10 -12 -16 -13 -26 -4 -19 16 -18 33 2 25
9 -3 20 -6 26 -6z m62 -25 c3 -9 0 -15 -8 -15 -8 0 -16 7 -20 15 -3 9 0 15 8
15 8 0 16 -7 20 -15z m-5063 -196 c-5 -63 -6 -118 -4 -122 3 -4 4 -64 4 -133
-1 -68 3 -132 8 -142 6 -11 4 -36 -5 -72 -10 -38 -13 -76 -8 -123 4 -45 2 -72
-6 -82 -11 -13 -29 -274 -49 -720 -8 -180 -9 -180 -44 -251 -20 -39 -43 -76
-50 -83 -8 -6 -12 -22 -10 -35 3 -16 -5 -34 -26 -58 -17 -20 -31 -43 -31 -51
0 -8 -8 -29 -17 -46 -21 -36 -68 -44 -76 -13 -11 41 -6 201 7 233 7 19 12 50
10 69 -3 19 -9 193 -13 385 -5 193 -14 364 -19 382 -6 18 -7 33 -4 35 20 9 86
168 111 270 16 64 37 130 45 147 9 16 16 39 16 50 0 10 15 63 34 118 18 54 46
141 60 193 29 103 66 191 72 174 3 -6 0 -62 -5 -125z m-366 -219 c6 -28 2 -95
-11 -163 -10 -50 -22 -18 -19 51 2 37 4 84 4 105 1 45 17 49 26 7z m5716 -227
c5 -302 4 -332 -9 -345 -6 -6 -15 -8 -19 -4 -12 11 -20 526 -9 560 8 26 10 27
21 13 8 -12 13 -83 16 -224z m-4951 117 c0 -11 -4 -20 -9 -20 -5 0 -7 9 -4 20
3 11 7 20 9 20 2 0 4 -9 4 -20z m-25 -90 c3 -5 1 -10 -4 -10 -6 0 -11 5 -11
10 0 6 2 10 4 10 3 0 8 -4 11 -10z m-727 -470 c-3 -37 -6 -45 -23 -45 -18 0
-20 6 -18 70 2 38 6 77 9 85 10 25 35 -60 32 -110z m5693 -37 c3 -28 -2 -87
-8 -96 -3 -4 -11 -3 -19 4 -14 12 -19 65 -8 93 8 22 34 20 35 -1z m-5774 -314
c6 -293 12 -523 14 -544 2 -11 2 -57 1 -102 -2 -81 -3 -83 -32 -98 -24 -12
-30 -22 -30 -48 0 -40 -22 -76 -96 -153 -79 -83 -106 -99 -133 -82 -25 15 -54
2 -59 -28 -6 -32 -27 -41 -79 -33 -26 4 -81 13 -122 19 -83 13 -101 9 -101
-20 0 -11 -4 -20 -8 -20 -17 0 -5 68 16 90 12 13 22 27 22 32 0 4 6 8 14 8 8
0 28 29 45 64 16 35 37 66 46 70 25 9 68 7 104 -5 31 -11 81 -6 81 9 -1 26
-22 37 -67 35 -26 -2 -57 1 -68 6 -11 5 -28 12 -37 15 -10 3 -18 9 -18 13 0 5
22 38 48 75 27 36 55 80 62 97 7 17 16 31 21 31 5 0 9 6 9 13 0 15 60 64 95
77 20 8 25 15 21 30 -3 11 -8 28 -11 39 -6 20 9 35 43 44 18 4 25 0 32 -16 5
-15 4 -25 -4 -32 -7 -5 -18 -20 -25 -32 -11 -21 -9 -23 12 -23 27 0 47 17 47
41 0 9 7 22 15 29 13 11 20 9 39 -9 14 -13 29 -19 39 -15 51 19 -23 114 -88
114 -27 0 -35 4 -35 18 0 10 4 22 9 28 4 5 16 32 26 59 10 28 21 55 25 60 7
10 44 131 76 245 21 78 23 82 37 77 7 -2 12 -64 14 -178z m442 -49 c-10 -17
-11 -11 -14 90 -3 103 9 114 16 15 3 -49 2 -97 -2 -105z m-485 -866 c24 -9 19
-33 -9 -40 -38 -9 -47 -2 -30 24 18 25 17 24 39 16z m-166 -186 c-3 -7 -15
-14 -29 -16 -23 -2 -23 -2 -5 13 24 18 39 20 34 3z"/>
<path d="M6376 4883 c-3 -65 -2 -136 3 -158 7 -32 9 -17 12 80 1 66 3 137 4
158 0 20 -2 37 -6 37 -4 0 -9 -53 -13 -117z"/>
<path d="M6383 4570 c0 -68 3 -89 7 -59 3 25 3 72 -1 105 -4 46 -6 37 -6 -46z"/>
<path d="M850 2384 c-15 -39 -12 -74 6 -74 31 0 54 20 54 48 0 52 -43 71 -60
26z"/>
<path d="M396 1914 c-7 -19 1 -34 19 -34 21 0 28 19 15 35 -16 19 -26 19 -34
-1z"/>
<path d="M55 7290 c-10 -11 -15 -20 -11 -20 11 0 39 30 34 36 -3 2 -13 -5 -23
-16z"/>
<path d="M2020 7286 c0 -17 5 -26 16 -26 10 0 14 7 12 22 -5 32 -28 35 -28 4z"/>
<path d="M0 7193 c0 -22 2 -25 10 -13 13 20 13 40 0 40 -5 0 -10 -12 -10 -27z"/>
<path d="M2122 7165 c0 -16 2 -22 5 -12 2 9 2 23 0 30 -3 6 -5 -1 -5 -18z"/>
<path d="M2200 7147 c0 -7 6 -22 14 -33 18 -24 38 -8 30 24 -7 24 -44 32 -44
9z"/>
<path d="M4650 7138 c0 -29 67 -61 95 -46 15 9 14 13 -11 39 -35 37 -84 41
-84 7z"/>
<path d="M2260 6939 c0 -5 5 -7 10 -4 6 3 10 8 10 11 0 2 -4 4 -10 4 -5 0 -10
-5 -10 -11z"/>
<path d="M7100 6863 c-14 -3 -28 -10 -32 -17 -23 -34 10 -35 42 -1 13 14 22
24 19 24 -2 -1 -15 -4 -29 -6z"/>
<path d="M1555 6760 c3 -5 14 -10 23 -10 15 0 15 2 2 10 -20 13 -33 13 -25 0z"/>
<path d="M3537 6422 c-21 -23 -22 -62 -2 -62 8 0 15 9 15 21 0 11 5 29 10 40
13 24 -2 25 -23 1z"/>
<path d="M3641 6316 c-11 -13 -11 -20 -3 -28 8 -8 13 -7 18 5 10 27 0 41 -15
23z"/>
<path d="M1028 6263 c-51 -4 -67 -23 -19 -23 15 0 41 -10 56 -22 l28 -22 -5
22 c-4 12 -2 25 3 28 10 6 2 25 -9 22 -4 -1 -28 -3 -54 -5z"/>
<path d="M6825 6110 c3 -5 10 -10 16 -10 5 0 9 5 9 10 0 6 -7 10 -16 10 -8 0
-12 -4 -9 -10z"/>
<path d="M6322 6075 c0 -16 2 -22 5 -12 2 9 2 23 0 30 -3 6 -5 -1 -5 -18z"/>
<path d="M7136 6015 c-11 -8 -16 -15 -11 -15 5 0 -1 -7 -13 -16 -24 -16 -29
-53 -11 -85 8 -16 13 -18 24 -9 8 6 23 9 33 6 20 -7 46 -52 38 -65 -8 -12 9
-66 19 -64 5 2 10 21 10 43 2 73 36 78 52 8 3 -16 9 -28 14 -28 13 0 11 94 -3
108 -20 20 -2 24 31 7 l31 -16 0 39 c0 39 -1 39 -42 45 -30 4 -48 13 -61 31
-14 20 -27 26 -55 26 -21 0 -46 -7 -56 -15z"/>
<path d="M3030 5950 c-92 -7 -180 -32 -180 -52 0 -5 8 -7 18 -4 77 23 155 38
222 43 77 6 80 5 90 -18 6 -13 20 -40 31 -59 19 -35 24 -103 10 -164 -12 -55
-62 -81 -347 -180 -180 -62 -288 -105 -326 -129 -31 -20 -62 -37 -67 -37 -6 0
-54 -29 -108 -65 -53 -36 -101 -65 -105 -65 -4 0 -8 -4 -8 -10 0 -15 43 5 108
49 185 125 218 140 502 237 251 85 280 96 280 106 0 4 6 8 13 8 20 0 63 51 76
89 19 57 13 122 -14 178 -40 80 -49 83 -195 73z"/>
<path d="M6612 5930 c8 -13 15 -16 19 -8 10 15 2 28 -17 28 -12 0 -12 -4 -2
-20z"/>
<path d="M3116 5863 c-12 -12 -6 -33 9 -33 8 0 15 6 15 14 0 17 -14 28 -24 19z"/>
<path d="M225 5840 c-3 -5 1 -10 10 -10 9 0 13 5 10 10 -3 6 -8 10 -10 10 -2
0 -7 -4 -10 -10z"/>
<path d="M2930 5805 c0 -9 5 -15 11 -13 6 2 11 8 11 13 0 5 -5 11 -11 13 -6 2
-11 -4 -11 -13z"/>
<path d="M3145 5690 c-8 -13 4 -32 16 -25 12 8 12 35 0 35 -6 0 -13 -4 -16
-10z"/>
<path d="M3030 5640 c-13 -9 -13 -11 0 -20 19 -13 34 -8 38 13 4 19 -15 22
-38 7z"/>
<path d="M2937 5623 c-13 -12 -7 -33 8 -33 8 0 15 9 15 20 0 20 -11 26 -23 13z"/>
<path d="M7008 5532 c-14 -2 -32 -10 -40 -19 -12 -15 -9 -16 26 -10 21 3 41 8
43 11 12 11 -4 21 -29 18z"/>
<path d="M6496 5400 c-3 -19 -7 -62 -9 -95 -2 -50 1 -60 16 -63 15 -3 17 5 16
70 -1 40 -4 84 -9 98 -7 24 -7 24 -14 -10z"/>
<path d="M4678 5376 c-15 -8 -41 -17 -58 -21 -35 -8 -180 -70 -335 -144 -55
-26 -111 -53 -125 -59 -25 -11 -25 -11 -2 -11 13 -1 51 14 85 32 34 19 87 43
117 55 30 11 82 34 115 50 33 17 99 43 145 58 47 15 99 33 115 40 l30 13 -30
0 c-16 1 -42 -5 -57 -13z"/>
<path d="M2315 5360 c-4 -6 -3 -16 3 -22 6 -6 12 -6 17 2 4 6 3 16 -3 22 -6 6
-12 6 -17 -2z"/>
<path d="M7200 5208 c-2 -5 -3 -11 -4 -16 0 -4 -11 -21 -23 -37 -19 -26 -24
-28 -41 -18 -17 10 -20 9 -24 -10 -2 -12 -2 -33 0 -46 l4 -23 15 22 c14 20 16
20 33 5 11 -10 20 -34 22 -59 2 -28 8 -41 18 -41 19 0 26 51 10 70 -13 15 -5
55 11 55 13 0 10 40 -6 75 -7 17 -14 27 -15 23z"/>
<path d="M7108 4650 c-5 -303 3 -422 16 -234 9 133 7 474 -3 510 -5 17 -10
-99 -13 -276z"/>
<path d="M4361 4869 c-46 -22 -81 -43 -78 -45 3 -3 27 6 54 19 26 13 73 30
103 37 101 23 110 28 55 29 -40 1 -69 -8 -134 -40z"/>
<path d="M4615 4813 c-146 -20 -426 -161 -401 -201 11 -18 29 -15 141 22 262
88 440 89 610 4 22 -11 55 -31 73 -45 18 -14 35 -23 36 -22 2 2 6 25 8 52 l6
47 -58 35 c-94 57 -163 85 -252 100 -82 15 -105 16 -163 8z"/>
<path d="M2630 4784 c-73 -14 -179 -48 -208 -66 -50 -31 -92 -135 -62 -153 6
-4 45 9 88 28 199 90 200 90 321 95 104 4 120 2 198 -23 49 -16 117 -49 159
-77 87 -56 109 -61 99 -21 -20 82 -141 156 -323 197 -72 16 -231 28 -272 20z"/>
<path d="M3091 4767 c2 -1 13 -9 24 -17 19 -14 19 -14 6 3 -7 9 -18 17 -24 17
-6 0 -8 -1 -6 -3z"/>
<path d="M3626 4668 c-31 -141 -45 -243 -36 -252 7 -7 10 -1 10 18 0 15 5 37
11 48 6 12 15 51 20 89 4 37 11 79 15 93 4 16 2 26 -5 26 -6 0 -13 -10 -15
-22z"/>
<path d="M3693 4643 c-23 -9 -14 -23 15 -23 39 0 73 11 66 21 -5 9 -60 11 -81
2z"/>
<path d="M4840 4505 c-12 -14 -11 -18 0 -25 10 -6 18 -4 23 6 13 23 -7 39 -23
19z"/>
<path d="M4565 4480 c-3 -5 -16 -11 -28 -11 -12 -1 -4 -5 18 -9 46 -9 61 -4
44 16 -14 16 -25 18 -34 4z"/>
<path d="M4705 4480 l-60 -7 55 0 c30 -1 66 3 80 7 30 10 13 10 -75 0z"/>
<path d="M4428 4453 c18 -2 45 -2 60 0 15 2 0 4 -33 4 -33 0 -45 -2 -27 -4z"/>
<path d="M6642 4350 c1 -22 6 -40 10 -40 4 0 8 -9 8 -20 0 -10 9 -24 20 -30
15 -8 21 -6 30 9 17 32 12 55 -18 89 -39 44 -53 41 -50 -8z"/>
<path d="M5763 4183 c-23 -9 -14 -20 12 -15 33 6 42 -18 25 -68 -16 -49 -63
-98 -97 -102 -42 -5 -41 -28 1 -28 26 0 42 7 61 28 38 40 65 103 65 150 0 39
-2 42 -27 41 -16 0 -34 -3 -40 -6z"/>
<path d="M6710 4150 c-9 -6 -10 -10 -3 -10 6 0 15 5 18 10 8 12 4 12 -15 0z"/>
<path d="M1690 4141 c0 -5 8 -11 19 -14 10 -2 38 -34 62 -71 39 -59 59 -79 59
-58 0 14 -58 95 -90 123 -31 29 -50 37 -50 20z"/>
<path d="M5703 4123 c-4 -10 -12 -22 -20 -26 -7 -4 -13 -16 -13 -25 1 -12 9
-7 30 18 17 19 30 38 30 42 0 15 -21 8 -27 -9z"/>
<path d="M1666 4122 c-17 -27 -17 -95 -2 -137 16 -39 22 -45 59 -53 30 -6 52
-5 76 5 65 26 55 37 -32 34 -82 -3 -93 9 -90 96 2 61 0 72 -11 55z"/>
<path d="M6741 4074 c0 -27 3 -43 6 -36 8 20 23 3 23 -26 0 -18 3 -23 9 -14 8
13 -16 102 -31 118 -5 4 -8 -15 -7 -42z"/>
<path d="M343 4043 c-30 -6 -29 -31 1 -44 18 -9 30 -7 55 5 37 19 39 31 9 40
-24 6 -29 6 -65 -1z"/>
<path d="M5627 4023 c-77 -148 -88 -178 -82 -223 4 -24 18 -66 32 -94 24 -48
24 -49 8 -94 -19 -49 -90 -127 -106 -116 -7 4 -8 19 -5 38 12 56 36 239 35
260 -1 12 -10 -28 -20 -89 -25 -141 -68 -331 -84 -370 -30 -70 -34 -82 -44
-115 -20 -66 -103 -215 -167 -301 -75 -102 -222 -244 -290 -279 -46 -24 -77
-61 -40 -47 113 44 346 280 413 418 33 69 62 99 96 99 18 1 46 7 62 16 25 12
26 13 5 8 -54 -13 -88 -15 -94 -6 -3 6 7 39 24 74 16 34 30 68 30 75 0 6 10
19 22 28 13 8 63 55 111 103 89 87 144 160 165 217 25 71 24 82 -20 169 -38
75 -46 84 -65 79 -31 -7 -29 6 12 84 19 36 35 72 35 80 0 22 -18 15 -33 -14z
m13 -205 c0 -5 11 -34 25 -64 30 -65 28 -86 -19 -180 -25 -51 -55 -89 -116
-146 -44 -43 -86 -78 -91 -78 -11 0 -2 43 17 82 8 15 34 41 59 58 52 36 87 80
106 132 12 34 10 41 -14 88 -28 54 -34 99 -16 117 12 12 49 6 49 -9z"/>
<path d="M3450 3994 c-14 -1 -95 -8 -180 -14 -274 -20 -590 -61 -590 -77 0 -8
128 5 225 22 44 8 139 19 210 25 72 6 162 15 200 20 93 12 832 12 1010 0 77
-5 230 -14 340 -20 200 -10 421 -41 482 -65 20 -9 35 -23 38 -38 10 -37 -23
-249 -46 -305 -24 -57 -78 -102 -147 -123 -49 -14 -46 -20 26 -44 28 -9 52
-20 52 -24 0 -17 -67 -130 -116 -196 -28 -38 -78 -95 -111 -127 -66 -62 -214
-163 -295 -201 -57 -26 -238 -81 -303 -92 -22 -3 -51 -13 -65 -20 -25 -14 -24
-14 10 -9 344 57 615 215 791 462 32 45 59 86 59 91 0 5 6 16 13 23 65 69 147
361 147 524 0 45 -5 75 -12 81 -17 14 -131 40 -253 58 -55 9 -208 20 -340 25
-132 5 -328 14 -435 20 -176 8 -647 11 -710 4z"/>
<path d="M5522 3979 c-1 -14 -5 -55 -8 -90 -4 -49 -3 -60 6 -47 6 11 9 48 7
90 -1 40 -4 61 -5 47z"/>
<path d="M6783 3883 c4 -16 11 -48 16 -73 28 -127 29 -135 19 -141 -6 -4 -19
-4 -29 -2 -27 7 -24 -13 6 -43 14 -14 23 -30 19 -35 -6 -10 43 -90 59 -97 4
-2 7 -9 7 -17 0 -7 7 -18 15 -25 8 -7 15 -20 15 -29 0 -9 6 -23 13 -29 6 -7
19 -32 27 -55 8 -23 33 -72 55 -109 30 -52 45 -68 61 -68 13 0 25 -8 28 -17 7
-22 16 -223 22 -498 5 -199 14 -263 30 -201 7 30 7 42 5 248 -1 133 7 188 29
188 5 0 10 -8 10 -18 0 -10 13 -38 28 -63 15 -24 49 -88 75 -141 26 -54 50
-98 52 -98 3 0 5 59 5 131 0 78 -4 128 -9 124 -5 -3 -12 -1 -16 5 -3 5 1 10 9
10 12 0 16 10 16 35 0 36 -8 43 -27 24 -9 -9 -18 -4 -37 17 -14 16 -26 37 -26
47 0 10 -7 32 -17 50 -12 25 -16 57 -15 137 2 130 0 138 -36 132 -27 -4 -29
-1 -41 55 -7 32 -17 69 -21 83 l-8 25 -1 -26 c-2 -50 -24 -140 -34 -136 -6 2
-15 16 -20 33 -5 16 -21 57 -37 90 -24 53 -44 120 -66 223 -3 14 -14 37 -25
52 -15 21 -19 44 -19 103 l0 76 -39 0 c-41 0 -71 20 -71 46 0 8 -7 14 -16 14
-12 0 -15 -7 -11 -27z m427 -763 c0 -5 -4 -10 -10 -10 -5 0 -10 5 -10 10 0 6
5 10 10 10 6 0 10 -4 10 -10z"/>
<path d="M1898 3882 c-31 -6 -19 -112 13 -112 13 0 21 -12 28 -42 10 -41 10
-40 5 17 -5 59 -19 134 -26 139 -1 1 -11 1 -20 -2z"/>
<path d="M2505 3880 c-28 -7 -28 -8 10 -8 22 0 54 4 70 8 28 7 28 8 -10 8 -22
0 -53 -4 -70 -8z"/>
<path d="M2398 3853 c7 -3 16 -2 19 1 4 3 -2 6 -13 5 -11 0 -14 -3 -6 -6z"/>
<path d="M1787 3833 c-4 -3 -7 -14 -7 -24 0 -9 -5 -19 -12 -21 -7 -3 -12 -32
-12 -84 0 -67 4 -88 28 -134 42 -84 161 -200 205 -200 11 0 30 -27 54 -77 46
-99 55 -133 33 -133 -9 0 -16 -4 -16 -10 0 -5 13 -10 30 -10 17 0 33 -7 39
-17 10 -17 10 -17 11 0 0 10 -9 30 -20 45 -28 39 -97 239 -126 363 -34 153
-40 165 -47 104 -6 -47 15 -137 44 -197 5 -10 9 -25 9 -34 0 -14 -3 -14 -30 3
-61 39 -138 113 -160 155 -26 51 -38 182 -22 241 11 38 10 42 -1 30z"/>
<path d="M2338 3833 c7 -3 16 -2 19 1 4 3 -2 6 -13 5 -11 0 -14 -3 -6 -6z"/>
<path d="M2284 3815 c-11 -27 2 -37 14 -11 7 16 8 26 1 26 -5 0 -12 -7 -15
-15z"/>
<path d="M2292 3690 c0 -14 2 -19 5 -12 2 6 2 18 0 25 -3 6 -5 1 -5 -13z"/>
<path d="M2290 3643 c0 -10 5 -25 10 -33 8 -12 10 -9 10 12 0 15 -4 30 -10 33
-5 3 -10 -2 -10 -12z"/>
<path d="M2331 3487 c-2 -17 32 -122 36 -112 2 6 -5 35 -16 65 -11 30 -20 51
-20 47z"/>
<path d="M3850 3440 l-35 -7 43 -2 c27 0 41 3 37 9 -3 6 -7 9 -8 9 -1 -1 -18
-5 -37 -9z"/>
<path d="M4215 3443 c-136 -7 -98 -18 85 -24 102 -4 246 -9 320 -13 91 -3 122
-2 95 4 -22 5 -67 9 -100 9 -33 1 -87 5 -120 10 -82 13 -196 18 -280 14z"/>
<path d="M2410 3386 c0 -40 -10 -58 -26 -45 -11 9 -12 5 -5 -18 11 -37 52
-115 58 -109 3 2 0 13 -6 24 -6 12 -11 23 -11 27 0 14 73 35 122 36 29 1 64 5
78 9 22 7 20 8 -15 9 -47 2 -107 27 -151 64 -39 33 -44 33 -44 3z"/>
<path d="M2695 3372 c-45 -9 -37 -22 14 -22 29 0 50 4 47 9 -8 12 -36 18 -61
13z"/>
<path d="M2810 3341 c0 -5 9 -7 20 -4 11 3 20 7 20 9 0 2 -9 4 -20 4 -11 0
-20 -4 -20 -9z"/>
<path d="M1948 3183 c7 -3 16 -2 19 1 4 3 -2 6 -13 5 -11 0 -14 -3 -6 -6z"/>
<path d="M2510 3096 c0 -2 8 -10 18 -17 15 -13 16 -12 3 4 -13 16 -21 21 -21
13z"/>
<path d="M2150 3084 c0 -28 99 -155 189 -242 147 -143 374 -280 574 -347 95
-32 126 -28 36 4 -218 79 -479 228 -579 332 -76 78 -118 127 -165 192 -47 65
-55 73 -55 61z"/>
<path d="M2556 3048 c3 -7 17 -22 32 -32 27 -19 27 -19 -2 12 -32 35 -38 38
-30 20z"/>
<path d="M6056 3046 c7 -19 54 -50 62 -41 6 6 -46 54 -60 55 -4 0 -5 -6 -2
-14z"/>
<path d="M2630 2981 c0 -10 39 -45 44 -40 3 2 -6 14 -20 26 -13 12 -24 18 -24
14z"/>
<path d="M5750 2935 c0 -2 25 -29 56 -61 65 -66 137 -161 166 -217 11 -22 22
-37 25 -34 15 16 -111 213 -181 283 -18 18 -66 39 -66 29z"/>
<path d="M6202 2923 c-18 -32 -15 -47 13 -73 29 -27 31 -17 11 50 -12 41 -14
43 -24 23z"/>
<path d="M6919 2910 c23 -20 41 -26 41 -14 0 11 -34 33 -50 33 -10 0 -8 -6 9
-19z"/>
<path d="M2720 2907 c42 -44 210 -121 340 -156 144 -40 549 -99 530 -78 -3 3
-64 13 -136 21 -189 22 -387 62 -482 97 -71 27 -136 58 -243 118 -22 12 -23
12 -9 -2z"/>
<path d="M5736 2775 c9 -14 22 -29 28 -33 22 -13 96 -115 96 -131 1 -17 30
-62 30 -45 0 28 -34 104 -56 124 -13 13 -24 28 -24 34 0 11 -73 76 -85 76 -3
0 2 -11 11 -25z"/>
<path d="M6270 2754 c0 -5 7 -18 15 -28 8 -11 15 -16 15 -10 0 5 -7 18 -15 28
-8 11 -15 16 -15 10z"/>
<path d="M6400 2715 c-3 -75 -12 -119 -23 -104 -12 18 -67 79 -67 75 0 -12 42
-86 55 -96 8 -7 17 -39 21 -72 5 -48 12 -65 34 -85 15 -13 36 -44 46 -69 24
-58 50 -57 47 1 -4 69 -11 85 -37 85 -19 0 -27 10 -42 48 -18 49 -24 138 -12
183 5 17 3 32 -7 45 -14 18 -14 17 -15 -11z"/>
<path d="M3975 2689 c-104 -14 -103 -20 3 -14 93 6 177 24 102 23 -19 0 -66
-5 -105 -9z"/>
<path d="M4818 2575 c-15 -15 -227 -89 -328 -115 -256 -64 -640 -106 -885 -97
-151 6 -243 21 -428 69 -65 17 -120 28 -123 26 -12 -13 214 -79 354 -105 174
-32 617 -15 859 33 40 8 74 14 76 14 3 0 7 -21 10 -47 7 -60 25 -179 33 -215
3 -16 12 -28 19 -28 21 0 37 -36 22 -48 -6 -6 -53 -18 -104 -27 -96 -18 -221
-54 -190 -54 9 -1 66 11 125 25 127 30 201 32 245 6 45 -25 44 -45 -1 -94 -39
-42 -41 -42 -125 -49 -46 -4 -109 -12 -138 -19 -127 -31 -193 -50 -203 -61 -8
-8 -6 -10 9 -5 185 53 365 83 365 59 -1 -45 -331 -243 -405 -243 -26 0 -27 -1
-20 -49 4 -32 3 -51 -5 -56 -16 -10 -40 13 -40 39 -1 11 -6 31 -14 44 -11 21
-14 22 -26 7 -10 -13 -24 -15 -59 -11 -25 3 -66 7 -91 8 -44 3 -45 2 -50 -32
-6 -42 -30 -50 -60 -20 -18 18 -21 29 -15 58 l7 37 -21 -19 c-19 -17 -25 -18
-64 -7 -42 13 -173 79 -246 125 -46 29 -103 96 -97 113 3 7 -8 23 -23 36 -38
32 -91 106 -91 128 0 23 26 49 50 49 10 0 52 -15 92 -34 130 -60 278 -95 408
-96 39 -1 62 -6 78 -20 23 -19 23 -21 12 -102 -18 -139 -20 -165 -11 -143 4
11 11 54 15 95 4 41 13 84 20 95 8 11 17 35 20 53 7 28 5 32 -13 32 -16 0 -21
6 -21 25 0 29 24 43 44 26 11 -10 16 -8 21 9 9 28 51 24 49 -5 -4 -44 -33
-130 -49 -141 -9 -7 -14 -18 -10 -24 4 -6 13 -2 25 12 10 13 20 21 23 18 2 -3
17 -56 32 -118 15 -62 29 -111 31 -109 2 2 -8 64 -22 138 -27 149 -27 171 -1
175 29 4 33 14 8 21 -20 5 -22 10 -17 39 8 41 -2 47 -56 34 -85 -21 -389 -5
-481 26 -27 9 -51 14 -53 11 -3 -3 32 -17 78 -32 72 -23 203 -40 346 -45 6 0
12 -11 12 -25 0 -24 -2 -25 -63 -25 -162 0 -330 40 -468 112 -82 42 -115 70
-104 87 10 17 32 13 81 -14 41 -23 44 -24 34 -5 -8 15 -8 48 1 118 18 140 10
151 -79 111 -45 -21 -165 -93 -189 -114 -62 -54 -132 -132 -169 -187 -25 -37
-58 -77 -73 -88 -40 -28 -133 -50 -216 -51 -92 0 -136 -16 -154 -54 -17 -36
-25 -42 -74 -55 -21 -6 -52 -25 -70 -41 l-32 -30 45 27 c34 21 61 29 111 32
l66 4 32 -41 c18 -22 42 -67 54 -98 20 -54 22 -76 21 -293 0 -213 -3 -248 -27
-375 -15 -77 -34 -162 -43 -190 -8 -27 -24 -84 -34 -126 -39 -156 -113 -308
-146 -295 -9 3 -15 -5 -19 -27 -2 -18 -10 -61 -15 -97 -6 -36 -20 -94 -30
-130 -10 -36 -20 -77 -23 -93 l-4 -27 278 0 278 0 6 43 c3 23 14 112 25 197
19 142 53 364 65 417 9 40 31 43 211 28 93 -8 273 -15 401 -15 127 0 243 -4
257 -10 23 -8 26 -15 26 -57 0 -68 -17 -123 -38 -124 -9 0 -73 0 -142 0 -196
1 -505 -32 -531 -55 -21 -18 -36 -103 -44 -239 -3 -55 -8 -119 -11 -142 l-5
-43 415 0 416 0 0 25 c0 93 108 365 187 471 121 161 225 226 388 240 266 23
469 -138 483 -384 4 -71 2 -86 -14 -103 -16 -18 -27 -20 -66 -16 -79 10 -104
29 -123 94 -26 91 -78 160 -162 218 -52 35 -105 33 -182 -6 -151 -77 -241
-238 -258 -460 l-6 -79 658 0 657 0 -6 28 c-4 15 -13 67 -22 117 -17 98 -69
339 -86 395 -6 19 -22 49 -35 66 -12 17 -23 36 -23 41 0 21 -50 123 -60 123
-13 0 -5 -37 26 -114 13 -32 26 -75 30 -95 l6 -36 -30 50 c-109 185 -167 567
-131 855 21 169 80 339 131 374 38 27 106 20 164 -17 127 -80 218 -165 319
-300 56 -74 80 -90 38 -24 -81 127 -164 209 -344 340 -20 14 -51 51 -68 82
-42 74 -82 93 -158 75 -61 -15 -154 -8 -188 14 -14 9 -35 16 -47 16 -35 0 -44
10 -84 90 -49 99 -155 203 -265 260 -82 43 -99 58 -80 69 7 4 62 20 124 35 62
15 126 34 142 41 17 7 41 16 55 20 55 16 151 75 122 75 -5 0 -11 -2 -14 -5z"/>
<path d="M6182 2479 c63 -84 89 -128 104 -171 15 -45 30 -66 40 -56 9 9 -89
194 -119 226 -39 41 -56 42 -25 1z"/>
<path d="M155 2450 c-51 -24 -78 -46 -74 -59 3 -7 13 -6 30 3 14 7 36 16 50
19 13 4 38 18 54 31 l30 25 -25 0 c-14 0 -43 -9 -65 -19z"/>
<path d="M1261 2382 c-6 -12 -11 -27 -11 -34 1 -7 8 0 16 15 9 16 13 31 11 34
-3 2 -10 -4 -16 -15z"/>
<path d="M1516 2385 c-9 -26 -7 -32 5 -12 6 10 9 21 6 23 -2 3 -7 -2 -11 -11z"/>
<path d="M1611 2339 c-12 -28 -20 -56 -18 -62 2 -7 7 3 11 21 4 17 11 32 15
32 3 0 12 14 18 30 19 51 -3 33 -26 -21z"/>
<path d="M6020 2354 c0 -3 23 -29 50 -57 28 -28 50 -56 50 -62 0 -6 10 -31 22
-56 12 -24 32 -73 44 -109 14 -42 23 -56 23 -40 2 60 -38 159 -96 243 -45 64
-93 106 -93 81z"/>
<path d="M1462 2293 c-40 -57 -97 -191 -87 -202 7 -6 8 -4 39 69 15 36 39 86
52 113 27 53 25 61 -4 20z"/>
<path d="M6487 2290 c-3 -11 -1 -33 4 -48 5 -15 11 -44 14 -66 4 -21 17 -49
31 -63 19 -19 24 -34 24 -78 0 -30 4 -56 9 -59 4 -3 11 -31 14 -61 3 -31 10
-62 15 -68 5 -7 10 -43 10 -82 1 -38 6 -92 12 -120 23 -102 29 -152 29 -250 1
-55 8 -134 17 -175 22 -106 14 -172 -25 -209 -28 -26 -31 -35 -31 -89 0 -38
-7 -76 -21 -106 -17 -38 -19 -59 -14 -109 5 -52 2 -71 -18 -122 -14 -33 -28
-82 -32 -109 -5 -27 -25 -81 -45 -120 -21 -39 -41 -87 -45 -106 -16 -87 -30
-122 -56 -135 -25 -13 -79 -85 -79 -105 0 -18 57 -11 65 7 6 17 7 17 16 0 8
-13 23 -17 70 -17 l60 0 -2 92 c-3 98 2 157 22 248 6 30 15 73 19 95 4 22 21
74 38 115 29 71 31 81 25 167 l-6 92 27 12 c24 11 26 17 26 70 0 45 4 61 18
71 33 23 38 45 30 120 -4 40 -12 173 -16 295 -5 125 -13 228 -19 235 -12 15
-19 55 -32 179 -5 47 -13 95 -19 106 -17 31 -43 196 -33 206 6 6 36 -3 75 -22
60 -28 73 -31 129 -25 34 3 65 10 68 15 8 13 58 -7 65 -26 4 -9 -3 -23 -17
-34 -22 -18 -22 -19 -3 -28 22 -12 92 -24 144 -27 25 -1 35 3 35 14 0 11 -14
16 -49 20 -27 3 -51 11 -54 17 -5 18 41 33 82 26 32 -5 36 -3 36 16 0 19 -6
21 -56 21 -30 0 -64 5 -75 11 -11 6 -35 11 -52 11 -18 0 -48 9 -67 18 -72 37
-131 60 -150 60 -22 0 -27 -25 -7 -33 7 -3 5 -6 -5 -6 -10 -1 -18 4 -18 10 0
6 -10 9 -24 7 -21 -4 -23 -2 -20 34 3 30 0 40 -14 44 -56 18 -73 29 -84 55
-15 34 -33 38 -41 9z"/>
<path d="M1570 2239 c0 -9 -9 -33 -20 -56 -10 -22 -21 -67 -24 -99 l-6 -59 15
50 c40 133 48 166 42 172 -4 3 -7 0 -7 -8z"/>
<path d="M5886 2133 c4 -10 12 -31 19 -48 11 -27 23 -76 53 -225 l10 -45 1 60
c1 61 -27 181 -56 243 -16 33 -37 45 -27 15z"/>
<path d="M4320 2100 c-19 -5 -75 -16 -125 -25 -160 -30 -277 -57 -271 -62 3
-3 36 2 73 10 37 9 91 19 118 22 91 12 249 45 259 55 12 12 -2 11 -54 0z"/>
<path d="M5790 2080 c0 -5 5 -10 11 -10 5 0 7 5 4 10 -3 6 -8 10 -11 10 -2 0
-4 -4 -4 -10z"/>
<path d="M6805 2039 c-8 -11 22 -38 43 -39 17 0 15 15 -4 34 -18 19 -30 20
-39 5z"/>
<path d="M5809 1998 c-3 -67 -1 -97 9 -114 28 -49 36 49 8 101 -11 21 -16 25
-17 13z"/>
<path d="M3975 1963 c-22 -3 -44 -9 -50 -14 -10 -11 54 -5 125 11 l35 8 -35
-1 c-19 0 -53 -2 -75 -4z"/>
<path d="M7218 1936 c-27 -20 -22 -26 20 -26 20 0 52 -9 70 -20 42 -26 44 -25
40 7 -3 23 -10 28 -58 39 -30 7 -55 13 -55 13 0 0 -8 -6 -17 -13z"/>
<path d="M3891 1900 c0 -8 4 -22 9 -30 12 -18 12 -2 0 25 -6 13 -9 15 -9 5z"/>
<path d="M7109 1748 c-4 -353 -6 -489 -12 -623 -6 -134 -6 -138 8 -90 8 28 15
78 15 112 0 34 5 65 10 68 15 9 12 43 -7 75 -15 26 -15 33 0 97 24 98 20 523
-5 523 -4 0 -9 -73 -9 -162z"/>
<path d="M3911 1835 c1 -21 27 -98 28 -80 0 6 -6 30 -13 55 -8 25 -15 36 -15
25z"/>
<path d="M3305 1815 c38 -13 70 -23 72 -21 5 5 -107 46 -125 45 -10 0 14 -11
53 -24z"/>
<path d="M1170 1783 c0 -5 -11 -45 -24 -90 -25 -87 -19 -114 8 -40 21 56 36
137 25 137 -5 0 -9 -3 -9 -7z"/>
<path d="M3410 1776 c0 -5 108 -56 118 -56 12 0 -92 60 -105 60 -7 0 -13 -2
-13 -4z"/>
<path d="M1408 1740 c-4 -14 -8 -36 -7 -50 l0 -25 10 25 c5 13 9 36 7 50 l-3
25 -7 -25z"/>
<path d="M7192 1730 c0 -14 2 -19 5 -12 2 6 2 18 0 25 -3 6 -5 1 -5 -13z"/>
<path d="M1012 1682 c-24 -63 -31 -114 -10 -78 12 22 41 126 36 132 -2 1 -14
-23 -26 -54z"/>
<path d="M2060 1661 c-68 -69 -144 -174 -193 -266 -47 -89 -209 -429 -223
-469 -8 -22 -18 -44 -22 -50 -5 -6 -26 -56 -47 -111 -71 -187 -106 -267 -120
-277 -5 -4 -9 -18 -10 -32 0 -40 -20 -35 -23 5 -3 31 -7 38 -30 42 -15 3 -28
4 -29 4 -4 -5 28 -140 37 -157 7 -13 7 -21 -1 -26 -8 -5 -8 -8 0 -14 8 -4 9
-14 3 -31 -5 -13 -13 -48 -17 -76 -4 -29 -10 -53 -15 -53 -4 0 -10 -21 -13
-47 -4 -27 -9 -61 -13 -76 -6 -24 -4 -28 11 -25 14 2 22 23 36 88 28 139 106
409 163 572 59 167 70 193 158 378 189 396 244 489 365 620 83 90 71 91 -17 1z"/>
<path d="M3940 1725 c0 -5 5 -17 10 -25 5 -8 10 -10 10 -5 0 6 -5 17 -10 25
-5 8 -10 11 -10 5z"/>
<path d="M1612 1633 c-6 -21 -13 -67 -16 -103 -5 -61 -5 -62 5 -20 22 100 28
126 34 143 4 9 3 17 -2 17 -6 0 -15 -17 -21 -37z"/>
<path d="M1787 1646 c-11 -28 -18 -181 -8 -165 6 9 13 53 17 97 6 77 3 100 -9
68z"/>
<path d="M3971 1634 c0 -11 3 -14 6 -6 3 7 2 16 -1 19 -3 4 -6 -2 -5 -13z"/>
<path d="M7192 1600 c0 -19 2 -27 5 -17 2 9 2 25 0 35 -3 9 -5 1 -5 -18z"/>
<path d="M6210 1538 c0 -40 -2 -111 -5 -158 l-5 -85 15 50 c17 58 21 265 5
265 -6 0 -10 -31 -10 -72z"/>
<path d="M6485 1573 c1 -16 5 -37 10 -47 5 -11 3 -66 -3 -131 -15 -139 -15
-197 -2 -174 13 22 31 135 37 232 4 64 2 85 -13 113 -22 41 -30 43 -29 7z"/>
<path d="M1113 1520 c0 -25 2 -35 4 -22 2 12 2 32 0 45 -2 12 -4 2 -4 -23z"/>
<path d="M5796 1508 c-9 -27 -15 -158 -7 -158 10 0 28 160 19 166 -5 3 -10 -1
-12 -8z"/>
<path d="M6020 1470 c0 -30 -7 -98 -15 -150 -8 -52 -12 -96 -10 -98 2 -2 6 13
10 34 3 22 10 55 15 74 16 62 22 144 11 170 -8 22 -10 18 -11 -30z"/>
<path d="M6333 1406 c4 -61 5 -133 2 -161 -3 -27 -1 -56 3 -63 6 -8 11 16 15
64 13 147 6 259 -17 267 -8 3 -9 -25 -3 -107z"/>
<path d="M5669 1370 c52 -86 89 -179 181 -465 59 -185 109 -396 140 -595 6
-36 15 -81 20 -100 5 -19 11 -62 15 -95 11 -101 15 -115 36 -115 16 0 19 7 18
38 l-2 37 -6 -35 c-6 -33 -7 -33 -13 -10 -4 14 -12 70 -18 125 -16 135 -23
173 -54 290 -14 56 -30 128 -35 160 -12 79 -45 203 -65 240 -9 17 -16 36 -16
43 0 16 -35 131 -60 197 -87 233 -91 240 -131 285 l-31 35 21 -35z"/>
<path d="M7166 1243 c-11 -12 -6 -50 8 -62 11 -9 20 -10 35 -1 26 13 26 21 3
41 -28 24 -39 29 -46 22z"/>
<path d="M7260 1190 c0 -13 33 -21 42 -12 6 6 -1 11 -16 14 -14 3 -26 2 -26
-2z"/>
<path d="M1577 1124 c-3 -6 -1 -28 5 -50 7 -23 13 -32 15 -22 6 23 -12 85 -20
72z"/>
<path d="M1136 1103 c-10 -32 21 -204 49 -268 19 -42 18 -8 -1 51 -8 27 -21
92 -28 144 -9 67 -14 88 -20 73z"/>
<path d="M968 1053 c-16 -165 35 -383 91 -391 13 -2 22 0 20 5 -2 4 -16 33
-31 63 -19 41 -32 95 -48 215 -12 88 -23 161 -25 163 -1 1 -5 -24 -7 -55z"/>
<path d="M516 1085 c-15 -8 -37 -15 -47 -15 -10 0 -23 -9 -29 -20 -10 -18 -8
-20 27 -20 44 0 147 45 138 60 -9 15 -56 12 -89 -5z"/>
<path d="M1335 1079 c-3 -8 -1 -45 5 -82 5 -37 15 -97 20 -133 10 -64 27 -111
36 -101 3 3 -2 31 -10 63 -8 33 -19 103 -25 158 -10 99 -16 121 -26 95z"/>
<path d="M6885 1080 c-3 -5 3 -10 15 -10 12 0 18 5 15 10 -3 6 -10 10 -15 10
-5 0 -12 -4 -15 -10z"/>
<path d="M7186 973 c-3 -32 -9 -168 -13 -303 -6 -251 -12 -294 -37 -284 -18 7
-33 321 -19 416 5 37 5 80 -1 106 -9 45 -26 57 -26 20 0 -13 -7 -221 -15 -463
-8 -242 -15 -446 -15 -452 0 -7 8 -13 19 -13 15 0 20 11 25 57 4 32 9 91 9
132 1 45 6 76 13 78 17 6 22 -17 15 -72 -4 -28 -5 -83 -3 -123 4 -67 6 -72 27
-72 23 0 23 1 29 178 15 435 20 610 20 657 -3 156 -6 195 -13 195 -4 0 -11
-26 -15 -57z"/>
<path d="M105 909 c-4 -6 -5 -13 -2 -16 7 -7 27 6 27 18 0 12 -17 12 -25 -2z"/>
<path d="M5591 874 c0 -11 3 -14 6 -6 3 7 2 16 -1 19 -3 4 -6 -2 -5 -13z"/>
<path d="M6148 840 c-3 -8 -11 -45 -17 -82 -6 -37 -14 -75 -18 -85 -4 -12 -3
-15 4 -8 14 14 46 149 40 172 -3 14 -5 15 -9 3z"/>
<path d="M6406 793 c-2 -10 -12 -55 -21 -99 -10 -45 -30 -103 -46 -130 -80
-140 -115 -224 -91 -224 15 0 56 53 80 105 13 28 31 61 40 75 9 14 17 32 19
40 3 19 21 150 27 208 5 43 1 55 -8 25z"/>
<path d="M6247 729 c-4 -36 -18 -103 -31 -147 -13 -45 -20 -82 -16 -82 19 0
63 189 58 252 -3 40 -4 38 -11 -23z"/>
<path d="M2260 591 c0 -22 -4 -42 -9 -45 -10 -6 -35 -126 -27 -133 2 -3 11 8
20 25 8 16 13 32 10 35 -3 3 -1 14 4 24 15 29 25 133 13 133 -6 0 -11 -18 -11
-39z"/>
<path d="M6761 426 c-35 -42 -19 -163 20 -151 13 4 19 1 19 -9 0 -10 9 -16 24
-16 14 0 27 -4 30 -9 7 -11 56 10 56 24 0 6 -14 16 -30 23 -38 17 -52 43 -54
101 -1 42 -3 46 -27 49 -14 2 -31 -4 -38 -12z"/>
<path d="M1176 354 c-4 -9 -1 -41 6 -70 12 -53 13 -54 49 -54 34 0 36 2 32 28
-13 78 -70 141 -87 96z"/>
<path d="M431 156 c-9 -10 -9 -16 -1 -21 17 -10 37 12 24 25 -8 8 -15 6 -23
-4z"/>
<path d="M7322 73 c-11 -18 4 -73 19 -73 5 0 9 20 9 45 0 46 -12 58 -28 28z"/>
</g>
</svg>
